<svg xmlns="http://www.w3.org/2000/svg" xmlns:xlink="http://www.w3.org/1999/xlink" width="500" zoomAndPan="magnify" viewBox="0 0 375 374.999991" height="500" preserveAspectRatio="xMidYMid meet" version="1.0"><defs><g/><clipPath id="9ccfac7051"><path d="M 3.75 147.820312 L 83.628906 147.820312 L 83.628906 227.699219 L 3.75 227.699219 Z M 3.75 147.820312 " clip-rule="nonzero"/></clipPath><clipPath id="35148a39a2"><path d="M 26 169 L 71 169 L 71 209 L 26 209 Z M 26 169 " clip-rule="nonzero"/></clipPath><clipPath id="2333577261"><path d="M 25.503906 160.683594 L 70.09375 169.585938 L 61.191406 214.175781 L 16.601562 205.273438 Z M 25.503906 160.683594 " clip-rule="nonzero"/></clipPath><clipPath id="b657027f9e"><path d="M 25.503906 160.683594 L 70.09375 169.585938 L 61.191406 214.175781 L 16.601562 205.273438 Z M 25.503906 160.683594 " clip-rule="nonzero"/></clipPath><clipPath id="555d3285a4"><path d="M 20 186 L 32 186 L 32 195 L 20 195 Z M 20 186 " clip-rule="nonzero"/></clipPath><clipPath id="4a9e1e3098"><path d="M 25.503906 160.683594 L 70.09375 169.585938 L 61.191406 214.175781 L 16.601562 205.273438 Z M 25.503906 160.683594 " clip-rule="nonzero"/></clipPath><clipPath id="503620e289"><path d="M 25.503906 160.683594 L 70.09375 169.585938 L 61.191406 214.175781 L 16.601562 205.273438 Z M 25.503906 160.683594 " clip-rule="nonzero"/></clipPath><clipPath id="7310cc005f"><path d="M 20 181 L 29 181 L 29 188 L 20 188 Z M 20 181 " clip-rule="nonzero"/></clipPath><clipPath id="13f1be8951"><path d="M 25.503906 160.683594 L 70.09375 169.585938 L 61.191406 214.175781 L 16.601562 205.273438 Z M 25.503906 160.683594 " clip-rule="nonzero"/></clipPath><clipPath id="4c00977972"><path d="M 25.503906 160.683594 L 70.09375 169.585938 L 61.191406 214.175781 L 16.601562 205.273438 Z M 25.503906 160.683594 " clip-rule="nonzero"/></clipPath><clipPath id="60285fccb3"><path d="M 27 198 L 40 198 L 40 207 L 27 207 Z M 27 198 " clip-rule="nonzero"/></clipPath><clipPath id="3a6418fadc"><path d="M 25.503906 160.683594 L 70.09375 169.585938 L 61.191406 214.175781 L 16.601562 205.273438 Z M 25.503906 160.683594 " clip-rule="nonzero"/></clipPath><clipPath id="ad79dc860c"><path d="M 25.503906 160.683594 L 70.09375 169.585938 L 61.191406 214.175781 L 16.601562 205.273438 Z M 25.503906 160.683594 " clip-rule="nonzero"/></clipPath><clipPath id="51a3bdf39f"><path d="M 35 203 L 43 203 L 43 210 L 35 210 Z M 35 203 " clip-rule="nonzero"/></clipPath><clipPath id="cc75c69a1e"><path d="M 25.503906 160.683594 L 70.09375 169.585938 L 61.191406 214.175781 L 16.601562 205.273438 Z M 25.503906 160.683594 " clip-rule="nonzero"/></clipPath><clipPath id="01781d0041"><path d="M 25.503906 160.683594 L 70.09375 169.585938 L 61.191406 214.175781 L 16.601562 205.273438 Z M 25.503906 160.683594 " clip-rule="nonzero"/></clipPath></defs><g clip-path="url(#9ccfac7051)"><path fill="#f63854" d="M 83.089844 187.492188 C 83.089844 188.789062 83.027344 190.085938 82.902344 191.378906 C 82.773438 192.671875 82.582031 193.957031 82.328125 195.230469 C 82.074219 196.503906 81.761719 197.761719 81.382812 199.007812 C 81.007812 200.25 80.570312 201.472656 80.070312 202.671875 C 79.574219 203.871094 79.019531 205.046875 78.40625 206.191406 C 77.792969 207.335938 77.128906 208.449219 76.40625 209.53125 C 75.683594 210.609375 74.910156 211.652344 74.085938 212.65625 C 73.261719 213.664062 72.390625 214.625 71.472656 215.542969 C 70.554688 216.460938 69.59375 217.332031 68.585938 218.15625 C 67.582031 218.980469 66.542969 219.753906 65.460938 220.476562 C 64.378906 221.199219 63.265625 221.863281 62.121094 222.476562 C 60.976562 223.089844 59.800781 223.644531 58.601562 224.140625 C 57.402344 224.640625 56.179688 225.078125 54.9375 225.453125 C 53.691406 225.832031 52.433594 226.144531 51.160156 226.398438 C 49.886719 226.652344 48.601562 226.84375 47.308594 226.972656 C 46.015625 227.097656 44.71875 227.160156 43.421875 227.160156 C 42.121094 227.160156 40.824219 227.097656 39.53125 226.972656 C 38.238281 226.84375 36.957031 226.652344 35.679688 226.398438 C 34.40625 226.144531 33.148438 225.832031 31.90625 225.453125 C 30.660156 225.078125 29.441406 224.640625 28.238281 224.140625 C 27.039062 223.644531 25.867188 223.089844 24.71875 222.476562 C 23.574219 221.863281 22.460938 221.199219 21.382812 220.476562 C 20.300781 219.753906 19.257812 218.980469 18.253906 218.15625 C 17.25 217.332031 16.289062 216.460938 15.371094 215.542969 C 14.449219 214.625 13.578125 213.664062 12.753906 212.65625 C 11.929688 211.652344 11.15625 210.609375 10.4375 209.53125 C 9.714844 208.449219 9.046875 207.335938 8.433594 206.191406 C 7.820312 205.046875 7.265625 203.871094 6.769531 202.671875 C 6.273438 201.472656 5.835938 200.25 5.457031 199.007812 C 5.082031 197.761719 4.765625 196.503906 4.511719 195.230469 C 4.257812 193.957031 4.070312 192.671875 3.941406 191.378906 C 3.8125 190.085938 3.75 188.789062 3.75 187.492188 C 3.75 186.191406 3.8125 184.894531 3.941406 183.601562 C 4.070312 182.308594 4.257812 181.027344 4.511719 179.75 C 4.765625 178.476562 5.082031 177.21875 5.457031 175.976562 C 5.835938 174.730469 6.273438 173.511719 6.769531 172.308594 C 7.265625 171.109375 7.820312 169.9375 8.433594 168.789062 C 9.046875 167.644531 9.714844 166.53125 10.4375 165.449219 C 11.15625 164.371094 11.929688 163.328125 12.753906 162.324219 C 13.578125 161.320312 14.449219 160.359375 15.371094 159.441406 C 16.289062 158.519531 17.25 157.648438 18.253906 156.824219 C 19.257812 156 20.300781 155.226562 21.382812 154.507812 C 22.460938 153.785156 23.574219 153.117188 24.71875 152.503906 C 25.867188 151.890625 27.039062 151.335938 28.238281 150.839844 C 29.441406 150.34375 30.660156 149.90625 31.90625 149.527344 C 33.148438 149.152344 34.40625 148.835938 35.679688 148.582031 C 36.957031 148.328125 38.238281 148.136719 39.53125 148.011719 C 40.824219 147.882812 42.121094 147.820312 43.421875 147.820312 C 44.71875 147.820312 46.015625 147.882812 47.308594 148.011719 C 48.601562 148.136719 49.886719 148.328125 51.160156 148.582031 C 52.433594 148.835938 53.691406 149.152344 54.9375 149.527344 C 56.179688 149.90625 57.402344 150.34375 58.601562 150.839844 C 59.800781 151.335938 60.976562 151.890625 62.121094 152.503906 C 63.265625 153.117188 64.378906 153.785156 65.460938 154.507812 C 66.542969 155.226562 67.582031 156 68.585938 156.824219 C 69.59375 157.648438 70.554688 158.519531 71.472656 159.441406 C 72.390625 160.359375 73.261719 161.320312 74.085938 162.324219 C 74.910156 163.328125 75.683594 164.371094 76.40625 165.449219 C 77.128906 166.53125 77.792969 167.644531 78.40625 168.789062 C 79.019531 169.9375 79.574219 171.109375 80.070312 172.308594 C 80.570312 173.511719 81.007812 174.730469 81.382812 175.976562 C 81.761719 177.21875 82.074219 178.476562 82.328125 179.75 C 82.582031 181.027344 82.773438 182.308594 82.902344 183.601562 C 83.027344 184.894531 83.089844 186.191406 83.089844 187.492188 Z M 83.089844 187.492188 " fill-opacity="1" fill-rule="nonzero"/></g><g clip-path="url(#35148a39a2)"><g clip-path="url(#2333577261)"><g clip-path="url(#b657027f9e)"><path fill="#ffffff" d="M 69.921875 169.847656 C 69.769531 169.613281 69.496094 169.492188 69.222656 169.523438 L 26.757812 174.867188 C 26.503906 174.898438 26.289062 175.058594 26.179688 175.289062 C 26.074219 175.519531 26.097656 175.789062 26.238281 176.003906 L 33.988281 187.621094 L 31.449219 194.808594 C 31.371094 195.027344 31.402344 195.269531 31.527344 195.460938 C 31.65625 195.652344 31.871094 195.773438 32.101562 195.789062 L 39.710938 196.199219 L 47.464844 207.816406 C 47.574219 207.980469 47.742188 208.089844 47.929688 208.128906 C 47.984375 208.140625 48.042969 208.144531 48.097656 208.144531 C 48.351562 208.132812 48.585938 207.996094 48.710938 207.773438 L 69.949219 170.617188 C 70.085938 170.375 70.078125 170.078125 69.921875 169.847656 Z M 28.117188 176.175781 L 65.148438 171.515625 L 35.054688 186.570312 Z M 35.398438 188.042969 L 64.394531 173.535156 L 39.863281 194.738281 L 33.160156 194.375 Z M 48.027344 206.015625 L 41.089844 195.617188 L 66.546875 173.613281 Z M 48.027344 206.015625 " fill-opacity="1" fill-rule="nonzero"/></g></g></g><g clip-path="url(#555d3285a4)"><g clip-path="url(#4a9e1e3098)"><g clip-path="url(#503620e289)"><path fill="#ffffff" d="M 30.316406 186.875 L 20.347656 193.527344 C 20.011719 193.753906 19.917969 194.207031 20.144531 194.542969 C 20.257812 194.714844 20.425781 194.820312 20.609375 194.855469 C 20.796875 194.894531 20.992188 194.859375 21.160156 194.746094 L 31.132812 188.097656 C 31.46875 187.871094 31.558594 187.417969 31.335938 187.078125 C 31.109375 186.742188 30.65625 186.652344 30.316406 186.875 Z M 30.316406 186.875 " fill-opacity="1" fill-rule="nonzero"/></g></g></g><g clip-path="url(#7310cc005f)"><g clip-path="url(#13f1be8951)"><g clip-path="url(#4c00977972)"><path fill="#ffffff" d="M 27.765625 183.046875 C 28.101562 182.824219 28.191406 182.367188 27.96875 182.03125 C 27.742188 181.695312 27.289062 181.601562 26.949219 181.828125 L 20.753906 185.960938 C 20.417969 186.1875 20.328125 186.640625 20.550781 186.980469 C 20.664062 187.148438 20.835938 187.253906 21.019531 187.289062 C 21.203125 187.328125 21.402344 187.292969 21.570312 187.183594 Z M 27.765625 183.046875 " fill-opacity="1" fill-rule="nonzero"/></g></g></g><g clip-path="url(#60285fccb3)"><g clip-path="url(#3a6418fadc)"><g clip-path="url(#ad79dc860c)"><path fill="#ffffff" d="M 39.191406 198.859375 C 38.964844 198.523438 38.511719 198.429688 38.175781 198.65625 L 28.203125 205.308594 C 27.867188 205.53125 27.777344 205.988281 28 206.324219 C 28.113281 206.492188 28.285156 206.601562 28.46875 206.636719 C 28.652344 206.675781 28.851562 206.640625 29.019531 206.527344 L 38.988281 199.878906 C 39.328125 199.652344 39.417969 199.195312 39.191406 198.859375 Z M 39.191406 198.859375 " fill-opacity="1" fill-rule="nonzero"/></g></g></g><g clip-path="url(#51a3bdf39f)"><g clip-path="url(#cc75c69a1e)"><g clip-path="url(#01781d0041)"><path fill="#ffffff" d="M 41.542969 203.703125 L 35.347656 207.835938 C 35.011719 208.0625 34.917969 208.515625 35.144531 208.855469 C 35.257812 209.023438 35.425781 209.128906 35.609375 209.167969 C 35.796875 209.203125 35.992188 209.171875 36.164062 209.058594 L 42.355469 204.925781 C 42.695312 204.699219 42.785156 204.246094 42.558594 203.90625 C 42.335938 203.570312 41.878906 203.480469 41.542969 203.703125 Z M 41.542969 203.703125 " fill-opacity="1" fill-rule="nonzero"/></g></g></g><g fill="#000000" fill-opacity="1"><g transform="translate(94.511916, 207.380845)"><g><path d="M 23.09375 0.703125 C 17.050781 0.703125 11.960938 -0.929688 7.828125 -4.203125 C 3.703125 -7.484375 1.640625 -12.179688 1.640625 -18.296875 C 1.640625 -21.878906 2.320312 -25.070312 3.6875 -27.875 C 5.050781 -30.6875 6.84375 -32.890625 9.0625 -34.484375 C 13.539062 -37.753906 18.566406 -39.390625 24.140625 -39.390625 C 27.378906 -39.390625 30.75 -38.804688 34.25 -37.640625 L 33.671875 -33.671875 C 31.835938 -34.453125 30.414062 -35.035156 29.40625 -35.421875 C 26.476562 -36.472656 23.535156 -37 20.578125 -37 C 16.484375 -36.0625 13.332031 -34.035156 11.125 -30.921875 C 8.925781 -27.804688 7.828125 -23.910156 7.828125 -19.234375 C 7.828125 -13.503906 9.328125 -9.085938 12.328125 -5.984375 C 15.328125 -2.890625 19.28125 -1.34375 24.1875 -1.34375 C 29.101562 -1.34375 32.769531 -2.394531 35.1875 -4.5 L 35.1875 -1.28125 C 31.832031 0.0390625 27.800781 0.703125 23.09375 0.703125 Z M 23.09375 0.703125 "/></g></g></g><g fill="#000000" fill-opacity="1"><g transform="translate(131.454334, 207.380845)"><g><path d="M 22.859375 -39.390625 C 27.921875 -39.390625 32.109375 -37.722656 35.421875 -34.390625 C 38.734375 -31.066406 40.390625 -26.441406 40.390625 -20.515625 C 40.390625 -16.691406 39.726562 -13.347656 38.40625 -10.484375 C 37.082031 -7.628906 35.347656 -5.421875 33.203125 -3.859375 C 29.035156 -0.816406 24.4375 0.703125 19.40625 0.703125 C 14.375 0.703125 10.210938 -0.976562 6.921875 -4.34375 C 3.628906 -7.71875 1.984375 -12.367188 1.984375 -18.296875 C 1.984375 -21.367188 2.421875 -24.144531 3.296875 -26.625 C 4.179688 -29.101562 5.332031 -31.117188 6.75 -32.671875 C 8.175781 -34.234375 9.820312 -35.539062 11.6875 -36.59375 C 15.113281 -38.457031 18.835938 -39.390625 22.859375 -39.390625 Z M 11.109375 -6.65625 C 12.117188 -4.945312 13.476562 -3.613281 15.1875 -2.65625 C 16.90625 -1.707031 18.882812 -1.234375 21.125 -1.234375 C 23.363281 -1.234375 25.359375 -1.796875 27.109375 -2.921875 C 28.867188 -4.054688 30.238281 -5.535156 31.21875 -7.359375 C 33.195312 -11.023438 34.1875 -14.960938 34.1875 -19.171875 C 34.1875 -24.359375 33.15625 -28.53125 31.09375 -31.6875 C 28.789062 -35.226562 24.992188 -37 19.703125 -37 C 15.921875 -35.675781 13.054688 -33.394531 11.109375 -30.15625 C 9.160156 -26.925781 8.1875 -23.265625 8.1875 -19.171875 C 8.1875 -14.179688 9.160156 -10.007812 11.109375 -6.65625 Z M 11.109375 -6.65625 "/></g></g></g><g fill="#000000" fill-opacity="1"><g transform="translate(173.832902, 207.380845)"><g><path d="M 34.65625 0.640625 L 33.671875 0.640625 L 8.0625 -31.390625 L 7.828125 -31.390625 L 7.828125 0 L 5.265625 0 L 5.265625 -38.703125 L 9.59375 -38.703125 L 31.859375 -10.578125 L 32.09375 -10.578125 L 32.09375 -38.703125 L 34.65625 -38.703125 Z M 34.65625 0.640625 "/></g></g></g><g fill="#f63854" fill-opacity="1"><g transform="translate(213.761912, 207.380845)"><g><path d="M 17.9375 0.9375 L 0.578125 -38.703125 L 6.953125 -38.703125 L 19.8125 -7.015625 L 31.390625 -38.703125 L 34.3125 -38.703125 L 18.875 0.9375 Z M 17.9375 0.9375 "/></g></g></g><g fill="#f63854" fill-opacity="1"><g transform="translate(248.65847, 207.380845)"><g><path d="M 17.9375 0.9375 L 0.578125 -38.703125 L 6.953125 -38.703125 L 19.8125 -7.015625 L 31.390625 -38.703125 L 34.3125 -38.703125 L 18.875 0.9375 Z M 17.9375 0.9375 "/></g></g></g><g fill="#000000" fill-opacity="1"><g transform="translate(283.558782, 207.380845)"><g><path d="M 10.640625 -38.703125 L 10.640625 0 L 5.265625 0 L 5.265625 -38.703125 Z M 10.640625 -38.703125 "/></g></g></g><g fill="#000000" fill-opacity="1"><g transform="translate(299.458058, 207.380845)"><g><path d="M 18.46875 0 L 12.796875 0 L 12.796875 -35.890625 C 11.472656 -36.203125 10.148438 -36.359375 8.828125 -36.359375 L 0.9375 -34.546875 L 0.578125 -38.703125 L 30.6875 -38.703125 L 30.390625 -34.546875 L 22.453125 -36.359375 C 21.117188 -36.359375 19.789062 -36.203125 18.46875 -35.890625 Z M 18.46875 0 "/></g></g></g><g fill="#000000" fill-opacity="1"><g transform="translate(330.730525, 207.380845)"><g><path d="M 5.265625 0 L 5.265625 -38.703125 L 28.703125 -38.703125 L 28.109375 -34.78125 L 17.25 -36.59375 C 15.332031 -36.59375 13.226562 -36.257812 10.9375 -35.59375 L 10.9375 -21.390625 L 23.90625 -21.390625 L 23.90625 -19.171875 L 10.9375 -19.171875 L 10.9375 -2.109375 L 29.046875 -3.921875 L 28.46875 0 Z M 5.265625 0 "/></g></g></g></svg>