<svg xmlns="http://www.w3.org/2000/svg" xmlns:xlink="http://www.w3.org/1999/xlink" width="500" zoomAndPan="magnify" viewBox="0 0 375 374.999991" height="500" preserveAspectRatio="xMidYMid meet" version="1.0"><defs><g/></defs><g fill="#f8fbfd" fill-opacity="1"><g transform="translate(67.219153, 231.374985)"><g><path d="M 7.5625 -67.140625 L 31.09375 -67.140625 L 31.09375 0 L 7.5625 0 Z M 19.328125 -74.578125 C 15.023438 -74.578125 11.550781 -75.769531 8.90625 -78.15625 C 6.269531 -80.550781 4.953125 -83.523438 4.953125 -87.078125 C 4.953125 -90.628906 6.269531 -93.601562 8.90625 -96 C 11.550781 -98.394531 15.023438 -99.59375 19.328125 -99.59375 C 23.617188 -99.59375 27.082031 -98.457031 29.71875 -96.1875 C 32.363281 -93.914062 33.6875 -91.003906 33.6875 -87.453125 C 33.6875 -83.734375 32.363281 -80.65625 29.71875 -78.21875 C 27.082031 -75.789062 23.617188 -74.578125 19.328125 -74.578125 Z M 19.328125 -74.578125 "/></g></g></g><g fill="#f8fbfd" fill-opacity="1"><g transform="translate(105.989604, 231.374985)"><g><path d="M 51.28125 -68.25 C 59.625 -68.25 66.332031 -65.769531 71.40625 -60.8125 C 76.488281 -55.863281 79.03125 -48.394531 79.03125 -38.40625 L 79.03125 0 L 55.5 0 L 55.5 -34.5625 C 55.5 -43.726562 51.820312 -48.3125 44.46875 -48.3125 C 40.425781 -48.3125 37.1875 -46.988281 34.75 -44.34375 C 32.3125 -41.707031 31.09375 -37.742188 31.09375 -32.453125 L 31.09375 0 L 7.5625 0 L 7.5625 -67.140625 L 29.984375 -67.140625 L 29.984375 -59.828125 C 32.617188 -62.554688 35.753906 -64.640625 39.390625 -66.078125 C 43.023438 -67.523438 46.988281 -68.25 51.28125 -68.25 Z M 51.28125 -68.25 "/></g></g></g><g fill="#f8fbfd" fill-opacity="1"><g transform="translate(192.201226, 231.374985)"><g><path d="M 78.28125 -67.140625 L 50.546875 0 L 26.265625 0 L -1.359375 -67.140625 L 22.796875 -67.140625 L 38.890625 -26.140625 L 55.875 -67.140625 Z M 78.28125 -67.140625 "/></g></g></g><g fill="#f8fbfd" fill-opacity="1"><g transform="translate(268.998939, 231.374985)"><g><path d="M 7.5625 -67.140625 L 31.09375 -67.140625 L 31.09375 0 L 7.5625 0 Z M 19.328125 -74.578125 C 15.023438 -74.578125 11.550781 -75.769531 8.90625 -78.15625 C 6.269531 -80.550781 4.953125 -83.523438 4.953125 -87.078125 C 4.953125 -90.628906 6.269531 -93.601562 8.90625 -96 C 11.550781 -98.394531 15.023438 -99.59375 19.328125 -99.59375 C 23.617188 -99.59375 27.082031 -98.457031 29.71875 -96.1875 C 32.363281 -93.914062 33.6875 -91.003906 33.6875 -87.453125 C 33.6875 -83.734375 32.363281 -80.65625 29.71875 -78.21875 C 27.082031 -75.789062 23.617188 -74.578125 19.328125 -74.578125 Z M 19.328125 -74.578125 "/></g></g></g><g fill="#f8fbfd" fill-opacity="1"><g transform="translate(88.447527, 267.953757)"><g><path d="M 2.65625 0 L 2.65625 -25.203125 L 10.40625 -25.203125 C 14.84375 -25.203125 18.109375 -24.070312 20.203125 -21.8125 C 22.304688 -19.5625 23.359375 -16.46875 23.359375 -12.53125 C 23.359375 -8.664062 22.304688 -5.609375 20.203125 -3.359375 C 18.109375 -1.117188 14.84375 0 10.40625 0 Z M 5.6875 -2.515625 L 10.328125 -2.515625 C 12.773438 -2.515625 14.722656 -2.914062 16.171875 -3.71875 C 17.628906 -4.53125 18.671875 -5.6875 19.296875 -7.1875 C 19.921875 -8.6875 20.234375 -10.46875 20.234375 -12.53125 C 20.234375 -14.644531 19.921875 -16.457031 19.296875 -17.96875 C 18.671875 -19.476562 17.628906 -20.640625 16.171875 -21.453125 C 14.722656 -22.273438 12.773438 -22.6875 10.328125 -22.6875 L 5.6875 -22.6875 Z M 5.6875 -2.515625 "/></g></g></g><g fill="#f8fbfd" fill-opacity="1"><g transform="translate(126.023227, 267.953757)"><g><path d="M 2.65625 0 L 2.65625 -25.203125 L 5.6875 -25.203125 L 5.6875 0 Z M 2.65625 0 "/></g></g></g><g fill="#f8fbfd" fill-opacity="1"><g transform="translate(146.900374, 267.953757)"><g><path d="M 13.5 0.4375 C 11.144531 0.4375 9.078125 -0.109375 7.296875 -1.203125 C 5.523438 -2.296875 4.144531 -3.820312 3.15625 -5.78125 C 2.175781 -7.738281 1.6875 -10 1.6875 -12.5625 C 1.6875 -15.132812 2.1875 -17.398438 3.1875 -19.359375 C 4.1875 -21.328125 5.601562 -22.863281 7.4375 -23.96875 C 9.269531 -25.070312 11.4375 -25.625 13.9375 -25.625 C 16.769531 -25.625 19.125 -24.941406 21 -23.578125 C 22.882812 -22.210938 24.101562 -20.328125 24.65625 -17.921875 L 21.171875 -17.921875 C 20.828125 -19.441406 20.023438 -20.644531 18.765625 -21.53125 C 17.515625 -22.414062 15.90625 -22.859375 13.9375 -22.859375 C 12.082031 -22.859375 10.472656 -22.441406 9.109375 -21.609375 C 7.742188 -20.785156 6.679688 -19.601562 5.921875 -18.0625 C 5.160156 -16.53125 4.78125 -14.695312 4.78125 -12.5625 C 4.78125 -10.425781 5.148438 -8.585938 5.890625 -7.046875 C 6.640625 -5.515625 7.675781 -4.332031 9 -3.5 C 10.320312 -2.675781 11.859375 -2.265625 13.609375 -2.265625 C 16.296875 -2.265625 18.320312 -3.050781 19.6875 -4.625 C 21.0625 -6.195312 21.84375 -8.351562 22.03125 -11.09375 L 14.765625 -11.09375 L 14.765625 -13.46875 L 25.125 -13.46875 L 25.125 0 L 22.359375 0 L 22.109375 -4.140625 C 21.191406 -2.671875 20.070312 -1.539062 18.75 -0.75 C 17.4375 0.0390625 15.6875 0.4375 13.5 0.4375 Z M 13.5 0.4375 "/></g></g></g><g fill="#f8fbfd" fill-opacity="1"><g transform="translate(186.67136, 267.953757)"><g><path d="M 2.65625 0 L 2.65625 -25.203125 L 5.6875 -25.203125 L 5.6875 0 Z M 2.65625 0 "/></g></g></g><g fill="#f8fbfd" fill-opacity="1"><g transform="translate(207.548506, 267.953757)"><g><path d="M 8.5625 0 L 8.5625 -22.71875 L 1.046875 -22.71875 L 1.046875 -25.203125 L 19.109375 -25.203125 L 19.109375 -22.71875 L 11.59375 -22.71875 L 11.59375 0 Z M 8.5625 0 "/></g></g></g><g fill="#f8fbfd" fill-opacity="1"><g transform="translate(240.229809, 267.953757)"><g><path d="M 1.078125 0 L 10.375 -25.203125 L 13.578125 -25.203125 L 22.828125 0 L 19.625 0 L 17.3125 -6.484375 L 6.59375 -6.484375 L 4.25 0 Z M 7.484375 -8.921875 L 16.421875 -8.921875 L 11.953125 -21.390625 Z M 7.484375 -8.921875 "/></g></g></g><g fill="#f8fbfd" fill-opacity="1"><g transform="translate(276.65389, 267.953757)"><g><path d="M 2.65625 0 L 2.65625 -25.203125 L 5.6875 -25.203125 L 5.6875 -2.40625 L 17.421875 -2.40625 L 17.421875 0 Z M 2.65625 0 "/></g></g></g></svg>