<svg xmlns="http://www.w3.org/2000/svg" xmlns:xlink="http://www.w3.org/1999/xlink" width="500" zoomAndPan="magnify" viewBox="0 0 375 374.999991" height="500" preserveAspectRatio="xMidYMid meet" version="1.0"><path fill="#f8fbfd" d="M 254.738281 253.144531 L 247.472656 263.644531 C 246.9375 264.417969 246.347656 265.148438 245.703125 265.835938 C 245.0625 266.523438 244.371094 267.160156 243.636719 267.75 C 242.902344 268.335938 242.128906 268.867188 241.3125 269.339844 C 240.5 269.8125 239.65625 270.226562 238.785156 270.578125 C 237.910156 270.925781 237.015625 271.210938 236.101562 271.433594 C 235.1875 271.652344 234.261719 271.804688 233.324219 271.890625 C 232.386719 271.972656 231.445312 271.992188 230.507812 271.9375 C 229.566406 271.886719 228.636719 271.765625 227.714844 271.578125 C 134.289062 252.519531 113.972656 165.773438 109.5625 129.917969 C 109.425781 128.839844 109.382812 127.753906 109.433594 126.667969 C 109.484375 125.578125 109.621094 124.503906 109.851562 123.4375 C 110.082031 122.375 110.402344 121.339844 110.808594 120.328125 C 111.214844 119.316406 111.703125 118.347656 112.269531 117.421875 C 112.839844 116.492188 113.484375 115.621094 114.203125 114.800781 C 114.917969 113.980469 115.699219 113.226562 116.542969 112.542969 C 117.386719 111.855469 118.285156 111.242188 119.230469 110.707031 C 120.179688 110.171875 121.164062 109.71875 122.191406 109.347656 L 134.855469 104.789062 C 135.539062 104.542969 136.234375 104.335938 136.941406 104.167969 C 137.558594 104.023438 138.179688 103.90625 138.804688 103.820312 C 139.433594 103.738281 140.0625 103.683594 140.695312 103.660156 C 141.328125 103.636719 141.960938 103.644531 142.589844 103.683594 C 143.222656 103.722656 143.851562 103.792969 144.476562 103.894531 C 145.101562 103.996094 145.71875 104.125 146.332031 104.289062 C 146.941406 104.449219 147.542969 104.640625 148.136719 104.863281 C 148.730469 105.082031 149.3125 105.332031 149.878906 105.609375 C 150.449219 105.886719 151 106.191406 151.539062 106.523438 C 152.078125 106.859375 152.601562 107.214844 153.101562 107.597656 C 153.605469 107.980469 154.089844 108.390625 154.554688 108.820312 C 155.015625 109.25 155.457031 109.703125 155.875 110.179688 C 156.296875 110.652344 156.691406 111.144531 157.058594 111.660156 C 157.429688 112.171875 157.773438 112.703125 158.09375 113.25 C 158.410156 113.796875 158.703125 114.359375 158.964844 114.933594 C 159.230469 115.507812 159.460938 116.09375 159.667969 116.695312 C 159.875 117.292969 160.050781 117.898438 160.195312 118.515625 L 165.6875 141.699219 C 166.027344 143.128906 166.199219 144.582031 166.207031 146.050781 C 166.210938 147.523438 166.054688 148.976562 165.730469 150.410156 C 165.402344 151.84375 164.921875 153.222656 164.28125 154.546875 C 163.640625 155.871094 162.859375 157.109375 161.9375 158.253906 L 157.828125 163.363281 C 157.222656 164.117188 156.679688 164.914062 156.195312 165.746094 C 155.710938 166.582031 155.289062 167.449219 154.933594 168.347656 C 154.578125 169.246094 154.289062 170.167969 154.070312 171.105469 C 153.855469 172.046875 153.707031 173 153.632812 173.964844 C 153.554688 174.925781 153.550781 175.890625 153.621094 176.855469 C 153.6875 177.816406 153.828125 178.769531 154.039062 179.714844 C 154.25 180.65625 154.53125 181.578125 154.878906 182.480469 C 155.226562 183.378906 155.640625 184.25 156.121094 185.089844 C 164.660156 200.140625 177.8125 210.992188 187.527344 217.539062 C 188.386719 218.117188 189.285156 218.621094 190.222656 219.050781 C 191.164062 219.480469 192.128906 219.835938 193.125 220.113281 C 194.121094 220.386719 195.132812 220.582031 196.160156 220.695312 C 197.1875 220.808594 198.214844 220.839844 199.246094 220.789062 C 200.277344 220.734375 201.300781 220.601562 202.308594 220.386719 C 203.320312 220.167969 204.308594 219.875 205.269531 219.5 C 206.230469 219.125 207.160156 218.675781 208.050781 218.152344 C 208.941406 217.628906 209.78125 217.035156 210.578125 216.375 C 211.378906 215.714844 212.230469 215.121094 213.125 214.597656 C 214.023438 214.074219 214.957031 213.621094 215.925781 213.25 C 216.894531 212.875 217.886719 212.582031 218.90625 212.367188 C 219.921875 212.152344 220.949219 212.023438 221.988281 211.972656 C 223.027344 211.925781 224.0625 211.960938 225.09375 212.078125 C 226.125 212.199219 227.140625 212.398438 228.140625 212.683594 C 229.140625 212.964844 230.113281 213.328125 231.054688 213.765625 C 231.996094 214.207031 232.894531 214.71875 233.753906 215.304688 L 249.726562 226.175781 L 249.851562 226.261719 C 250.371094 226.621094 250.871094 227.007812 251.355469 227.417969 C 251.835938 227.828125 252.296875 228.257812 252.738281 228.714844 C 253.179688 229.167969 253.59375 229.644531 253.988281 230.140625 C 254.382812 230.632812 254.75 231.148438 255.089844 231.679688 C 255.433594 232.210938 255.75 232.757812 256.039062 233.324219 C 256.328125 233.886719 256.589844 234.460938 256.820312 235.050781 C 257.054688 235.636719 257.257812 236.238281 257.429688 236.84375 C 257.605469 237.453125 257.746094 238.070312 257.859375 238.691406 C 257.972656 239.3125 258.054688 239.941406 258.109375 240.570312 C 258.160156 241.203125 258.179688 241.832031 258.167969 242.464844 C 258.160156 243.097656 258.117188 243.730469 258.046875 244.359375 C 257.972656 244.984375 257.871094 245.609375 257.738281 246.226562 C 257.601562 246.847656 257.4375 247.457031 257.246094 248.058594 C 257.050781 248.660156 256.828125 249.253906 256.578125 249.832031 C 256.324219 250.414062 256.046875 250.980469 255.738281 251.535156 C 255.433594 252.085938 255.097656 252.625 254.738281 253.144531 Z M 254.738281 253.144531 " fill-opacity="1" fill-rule="nonzero"/><path fill="#f8fbfd" d="M 192.507812 9.660156 C 87.296875 4.601562 0.3125 91.84375 5.675781 197.035156 C 6.019531 203.890625 6.757812 210.703125 7.890625 217.476562 C 9.027344 224.246094 10.550781 230.925781 12.460938 237.519531 C 14.371094 244.113281 16.65625 250.574219 19.316406 256.902344 C 21.976562 263.230469 24.996094 269.382812 28.371094 275.359375 C 29.265625 276.945312 29.839844 278.636719 30.105469 280.433594 C 30.367188 282.230469 30.296875 284.019531 29.894531 285.789062 L 15.90625 347.542969 C 13.941406 356.222656 22.351562 363.648438 30.722656 360.621094 L 83.105469 341.671875 C 84.109375 341.3125 85.140625 341.0625 86.199219 340.925781 C 87.261719 340.789062 88.320312 340.769531 89.386719 340.863281 C 90.449219 340.957031 91.492188 341.164062 92.507812 341.484375 C 93.527344 341.804688 94.5 342.234375 95.425781 342.765625 C 128.742188 361.804688 168.792969 370.410156 211.117188 364.128906 C 288.878906 352.585938 349.816406 290.78125 360.433594 212.886719 C 374.972656 106.226562 295.105469 14.597656 192.507812 9.660156 Z M 203.898438 328.4375 C 109.734375 341.355469 30.246094 261.863281 43.160156 167.703125 C 51.746094 105.136719 101.125 55.757812 163.691406 47.175781 C 257.851562 34.257812 337.34375 113.75 324.425781 207.910156 C 315.84375 270.472656 266.460938 319.855469 203.898438 328.4375 Z M 203.898438 328.4375 " fill-opacity="1" fill-rule="nonzero"/></svg>